<mxfile host="app.diagrams.net" modified="2023-07-10T06:54:23.331Z" agent="Mozilla/5.0 (Macintosh; Intel Mac OS X 10_15_7) AppleWebKit/537.36 (KHTML, like Gecko) Chrome/114.0.0.0 Safari/537.36" etag="YEUY9kqYmaGjsylON_yg" version="21.5.2" type="device">
  <diagram name="Page-1" id="uR26tAQ1aNB2DqkdDKjx">
    <mxGraphModel dx="954" dy="515" grid="1" gridSize="10" guides="1" tooltips="1" connect="1" arrows="1" fold="1" page="1" pageScale="1" pageWidth="850" pageHeight="1100" math="0" shadow="0">
      <root>
        <mxCell id="0" />
        <mxCell id="1" parent="0" />
        <mxCell id="jlVLY12v8j3fMJKy2r_y-21" style="edgeStyle=orthogonalEdgeStyle;rounded=0;orthogonalLoop=1;jettySize=auto;html=1;entryX=0;entryY=0.5;entryDx=0;entryDy=0;" edge="1" parent="1" source="jlVLY12v8j3fMJKy2r_y-16" target="jlVLY12v8j3fMJKy2r_y-20">
          <mxGeometry relative="1" as="geometry" />
        </mxCell>
        <mxCell id="jlVLY12v8j3fMJKy2r_y-16" value="" style="rounded=0;whiteSpace=wrap;html=1;" vertex="1" parent="1">
          <mxGeometry x="440" y="55" width="160" height="160" as="geometry" />
        </mxCell>
        <mxCell id="jlVLY12v8j3fMJKy2r_y-5" style="edgeStyle=orthogonalEdgeStyle;rounded=0;orthogonalLoop=1;jettySize=auto;html=1;exitX=1;exitY=0.5;exitDx=0;exitDy=0;" edge="1" parent="1">
          <mxGeometry relative="1" as="geometry">
            <mxPoint x="180" y="280" as="targetPoint" />
            <mxPoint x="130" y="280" as="sourcePoint" />
          </mxGeometry>
        </mxCell>
        <mxCell id="jlVLY12v8j3fMJKy2r_y-9" style="edgeStyle=orthogonalEdgeStyle;rounded=0;orthogonalLoop=1;jettySize=auto;html=1;entryX=0;entryY=0.5;entryDx=0;entryDy=0;" edge="1" parent="1" source="jlVLY12v8j3fMJKy2r_y-3" target="jlVLY12v8j3fMJKy2r_y-6">
          <mxGeometry relative="1" as="geometry" />
        </mxCell>
        <mxCell id="jlVLY12v8j3fMJKy2r_y-3" value="Elastic Load Balancing" style="sketch=0;outlineConnect=0;fontColor=#232F3E;gradientColor=none;strokeColor=#ffffff;fillColor=#232F3E;dashed=0;verticalLabelPosition=middle;verticalAlign=bottom;align=center;html=1;whiteSpace=wrap;fontSize=10;fontStyle=1;spacing=3;shape=mxgraph.aws4.productIcon;prIcon=mxgraph.aws4.elastic_load_balancing;" vertex="1" parent="1">
          <mxGeometry x="190" y="240" width="80" height="110" as="geometry" />
        </mxCell>
        <mxCell id="jlVLY12v8j3fMJKy2r_y-11" style="edgeStyle=orthogonalEdgeStyle;rounded=0;orthogonalLoop=1;jettySize=auto;html=1;entryX=0;entryY=0.444;entryDx=0;entryDy=0;entryPerimeter=0;" edge="1" parent="1" source="jlVLY12v8j3fMJKy2r_y-6" target="jlVLY12v8j3fMJKy2r_y-10">
          <mxGeometry relative="1" as="geometry">
            <mxPoint x="400" y="450" as="targetPoint" />
            <Array as="points">
              <mxPoint x="400" y="390" />
              <mxPoint x="401" y="390" />
              <mxPoint x="401" y="450" />
            </Array>
          </mxGeometry>
        </mxCell>
        <mxCell id="jlVLY12v8j3fMJKy2r_y-19" style="edgeStyle=orthogonalEdgeStyle;rounded=0;orthogonalLoop=1;jettySize=auto;html=1;entryX=0;entryY=0.5;entryDx=0;entryDy=0;" edge="1" parent="1" source="jlVLY12v8j3fMJKy2r_y-6" target="jlVLY12v8j3fMJKy2r_y-16">
          <mxGeometry relative="1" as="geometry" />
        </mxCell>
        <mxCell id="jlVLY12v8j3fMJKy2r_y-6" value="Scheduling Service" style="rounded=0;whiteSpace=wrap;html=1;" vertex="1" parent="1">
          <mxGeometry x="340" y="265" width="120" height="60" as="geometry" />
        </mxCell>
        <mxCell id="jlVLY12v8j3fMJKy2r_y-38" style="edgeStyle=orthogonalEdgeStyle;rounded=0;orthogonalLoop=1;jettySize=auto;html=1;" edge="1" parent="1" source="jlVLY12v8j3fMJKy2r_y-10">
          <mxGeometry relative="1" as="geometry">
            <mxPoint x="670" y="455" as="targetPoint" />
          </mxGeometry>
        </mxCell>
        <mxCell id="jlVLY12v8j3fMJKy2r_y-10" value="Amazon S3" style="sketch=0;outlineConnect=0;fontColor=#232F3E;gradientColor=none;strokeColor=#ffffff;fillColor=#232F3E;dashed=0;verticalLabelPosition=middle;verticalAlign=bottom;align=center;html=1;whiteSpace=wrap;fontSize=10;fontStyle=1;spacing=3;shape=mxgraph.aws4.productIcon;prIcon=mxgraph.aws4.s3;" vertex="1" parent="1">
          <mxGeometry x="460" y="410" width="70" height="90" as="geometry" />
        </mxCell>
        <mxCell id="jlVLY12v8j3fMJKy2r_y-12" value="Binary" style="text;html=1;align=center;verticalAlign=middle;resizable=0;points=[];autosize=1;strokeColor=none;fillColor=none;" vertex="1" parent="1">
          <mxGeometry x="340" y="380" width="60" height="30" as="geometry" />
        </mxCell>
        <mxCell id="jlVLY12v8j3fMJKy2r_y-17" style="edgeStyle=orthogonalEdgeStyle;rounded=0;orthogonalLoop=1;jettySize=auto;html=1;" edge="1" parent="1" source="jlVLY12v8j3fMJKy2r_y-13" target="jlVLY12v8j3fMJKy2r_y-15">
          <mxGeometry relative="1" as="geometry" />
        </mxCell>
        <mxCell id="jlVLY12v8j3fMJKy2r_y-18" style="edgeStyle=orthogonalEdgeStyle;rounded=0;orthogonalLoop=1;jettySize=auto;html=1;" edge="1" parent="1" source="jlVLY12v8j3fMJKy2r_y-13" target="jlVLY12v8j3fMJKy2r_y-14">
          <mxGeometry relative="1" as="geometry" />
        </mxCell>
        <mxCell id="jlVLY12v8j3fMJKy2r_y-13" value="" style="sketch=0;outlineConnect=0;fontColor=#232F3E;gradientColor=none;fillColor=#2E27AD;strokeColor=none;dashed=0;verticalLabelPosition=bottom;verticalAlign=top;align=center;html=1;fontSize=12;fontStyle=0;aspect=fixed;pointerEvents=1;shape=mxgraph.aws4.rds_mysql_instance;" vertex="1" parent="1">
          <mxGeometry x="450" y="110" width="50" height="50" as="geometry" />
        </mxCell>
        <mxCell id="jlVLY12v8j3fMJKy2r_y-14" value="" style="sketch=0;outlineConnect=0;fontColor=#232F3E;gradientColor=none;fillColor=#2E27AD;strokeColor=none;dashed=0;verticalLabelPosition=bottom;verticalAlign=top;align=center;html=1;fontSize=12;fontStyle=0;aspect=fixed;pointerEvents=1;shape=mxgraph.aws4.rds_mysql_instance;" vertex="1" parent="1">
          <mxGeometry x="530" y="70" width="50" height="50" as="geometry" />
        </mxCell>
        <mxCell id="jlVLY12v8j3fMJKy2r_y-15" value="" style="sketch=0;outlineConnect=0;fontColor=#232F3E;gradientColor=none;fillColor=#2E27AD;strokeColor=none;dashed=0;verticalLabelPosition=bottom;verticalAlign=top;align=center;html=1;fontSize=12;fontStyle=0;aspect=fixed;pointerEvents=1;shape=mxgraph.aws4.rds_mysql_instance;" vertex="1" parent="1">
          <mxGeometry x="540" y="150" width="50" height="50" as="geometry" />
        </mxCell>
        <mxCell id="jlVLY12v8j3fMJKy2r_y-23" style="edgeStyle=orthogonalEdgeStyle;rounded=0;orthogonalLoop=1;jettySize=auto;html=1;exitX=0.5;exitY=0;exitDx=0;exitDy=0;entryX=0;entryY=0.5;entryDx=0;entryDy=0;entryPerimeter=0;" edge="1" parent="1" source="jlVLY12v8j3fMJKy2r_y-20" target="jlVLY12v8j3fMJKy2r_y-22">
          <mxGeometry relative="1" as="geometry" />
        </mxCell>
        <mxCell id="jlVLY12v8j3fMJKy2r_y-20" value="Enquing Service" style="rounded=0;whiteSpace=wrap;html=1;" vertex="1" parent="1">
          <mxGeometry x="590" y="260" width="120" height="60" as="geometry" />
        </mxCell>
        <mxCell id="jlVLY12v8j3fMJKy2r_y-27" style="edgeStyle=orthogonalEdgeStyle;rounded=0;orthogonalLoop=1;jettySize=auto;html=1;exitX=1;exitY=0.5;exitDx=0;exitDy=0;exitPerimeter=0;entryX=0.5;entryY=1;entryDx=0;entryDy=0;" edge="1" parent="1" source="jlVLY12v8j3fMJKy2r_y-22" target="jlVLY12v8j3fMJKy2r_y-26">
          <mxGeometry relative="1" as="geometry" />
        </mxCell>
        <mxCell id="jlVLY12v8j3fMJKy2r_y-22" value="" style="outlineConnect=0;dashed=0;verticalLabelPosition=bottom;verticalAlign=top;align=center;html=1;shape=mxgraph.aws3.queue;fillColor=#D9A741;gradientColor=none;rotation=90;" vertex="1" parent="1">
          <mxGeometry x="780" y="190" width="70" height="38" as="geometry" />
        </mxCell>
        <mxCell id="jlVLY12v8j3fMJKy2r_y-24" value="RabbitMq or Sqs" style="text;html=1;align=center;verticalAlign=middle;resizable=0;points=[];autosize=1;strokeColor=none;fillColor=none;" vertex="1" parent="1">
          <mxGeometry x="830" y="185" width="110" height="30" as="geometry" />
        </mxCell>
        <mxCell id="jlVLY12v8j3fMJKy2r_y-25" value="publish" style="text;html=1;align=center;verticalAlign=middle;resizable=0;points=[];autosize=1;strokeColor=none;fillColor=none;" vertex="1" parent="1">
          <mxGeometry x="690" y="128" width="60" height="30" as="geometry" />
        </mxCell>
        <mxCell id="jlVLY12v8j3fMJKy2r_y-39" style="edgeStyle=orthogonalEdgeStyle;rounded=0;orthogonalLoop=1;jettySize=auto;html=1;exitX=0.75;exitY=0;exitDx=0;exitDy=0;entryX=0.188;entryY=0.008;entryDx=0;entryDy=0;entryPerimeter=0;" edge="1" parent="1" source="jlVLY12v8j3fMJKy2r_y-26" target="jlVLY12v8j3fMJKy2r_y-33">
          <mxGeometry relative="1" as="geometry" />
        </mxCell>
        <mxCell id="jlVLY12v8j3fMJKy2r_y-40" style="edgeStyle=orthogonalEdgeStyle;rounded=0;orthogonalLoop=1;jettySize=auto;html=1;exitX=0.5;exitY=0;exitDx=0;exitDy=0;" edge="1" parent="1" source="jlVLY12v8j3fMJKy2r_y-26" target="jlVLY12v8j3fMJKy2r_y-34">
          <mxGeometry relative="1" as="geometry" />
        </mxCell>
        <mxCell id="jlVLY12v8j3fMJKy2r_y-41" style="edgeStyle=orthogonalEdgeStyle;rounded=0;orthogonalLoop=1;jettySize=auto;html=1;exitX=0;exitY=0;exitDx=0;exitDy=0;entryX=0.804;entryY=-0.031;entryDx=0;entryDy=0;entryPerimeter=0;" edge="1" parent="1" source="jlVLY12v8j3fMJKy2r_y-26" target="jlVLY12v8j3fMJKy2r_y-33">
          <mxGeometry relative="1" as="geometry" />
        </mxCell>
        <mxCell id="jlVLY12v8j3fMJKy2r_y-26" value="" style="image;aspect=fixed;perimeter=ellipsePerimeter;html=1;align=center;shadow=0;dashed=0;fontColor=#4277BB;labelBackgroundColor=default;fontSize=12;spacingTop=3;image=img/lib/ibm/infrastructure/load_balancing_routing.svg;rotation=-180;" vertex="1" parent="1">
          <mxGeometry x="785" y="290" width="60" height="60" as="geometry" />
        </mxCell>
        <mxCell id="jlVLY12v8j3fMJKy2r_y-28" value="Load balancer" style="text;html=1;align=center;verticalAlign=middle;resizable=0;points=[];autosize=1;strokeColor=none;fillColor=none;" vertex="1" parent="1">
          <mxGeometry x="840" y="305" width="100" height="30" as="geometry" />
        </mxCell>
        <mxCell id="jlVLY12v8j3fMJKy2r_y-29" value="consume" style="text;html=1;align=center;verticalAlign=middle;resizable=0;points=[];autosize=1;strokeColor=none;fillColor=none;" vertex="1" parent="1">
          <mxGeometry x="820" y="250" width="70" height="30" as="geometry" />
        </mxCell>
        <mxCell id="jlVLY12v8j3fMJKy2r_y-30" value="Client" style="sketch=0;outlineConnect=0;fontColor=#232F3E;gradientColor=none;strokeColor=#232F3E;fillColor=#ffffff;dashed=0;verticalLabelPosition=bottom;verticalAlign=top;align=center;html=1;fontSize=12;fontStyle=0;aspect=fixed;shape=mxgraph.aws4.resourceIcon;resIcon=mxgraph.aws4.client;" vertex="1" parent="1">
          <mxGeometry x="70" y="250" width="60" height="60" as="geometry" />
        </mxCell>
        <mxCell id="jlVLY12v8j3fMJKy2r_y-43" style="edgeStyle=orthogonalEdgeStyle;rounded=0;orthogonalLoop=1;jettySize=auto;html=1;exitX=0;exitY=0.5;exitDx=0;exitDy=0;entryX=0.5;entryY=0;entryDx=0;entryDy=0;" edge="1" parent="1" source="jlVLY12v8j3fMJKy2r_y-33">
          <mxGeometry relative="1" as="geometry">
            <mxPoint x="600" y="560" as="targetPoint" />
            <Array as="points">
              <mxPoint x="601" y="475" />
            </Array>
          </mxGeometry>
        </mxCell>
        <mxCell id="jlVLY12v8j3fMJKy2r_y-48" style="edgeStyle=orthogonalEdgeStyle;rounded=0;orthogonalLoop=1;jettySize=auto;html=1;exitX=0;exitY=0.25;exitDx=0;exitDy=0;" edge="1" parent="1" source="jlVLY12v8j3fMJKy2r_y-33" target="jlVLY12v8j3fMJKy2r_y-45">
          <mxGeometry relative="1" as="geometry" />
        </mxCell>
        <mxCell id="jlVLY12v8j3fMJKy2r_y-33" value="&lt;div style=&quot;&quot;&gt;&lt;br&gt;&lt;/div&gt;" style="rounded=0;whiteSpace=wrap;html=1;align=center;" vertex="1" parent="1">
          <mxGeometry x="680" y="410" width="255" height="130" as="geometry" />
        </mxCell>
        <mxCell id="jlVLY12v8j3fMJKy2r_y-34" value="Execution Service" style="text;html=1;align=center;verticalAlign=middle;resizable=0;points=[];autosize=1;strokeColor=none;fillColor=none;" vertex="1" parent="1">
          <mxGeometry x="755" y="410" width="120" height="30" as="geometry" />
        </mxCell>
        <mxCell id="jlVLY12v8j3fMJKy2r_y-35" value="Worker 1" style="rounded=0;whiteSpace=wrap;html=1;" vertex="1" parent="1">
          <mxGeometry x="690" y="450" width="80" height="50" as="geometry" />
        </mxCell>
        <mxCell id="jlVLY12v8j3fMJKy2r_y-36" value="Worker 2" style="rounded=0;whiteSpace=wrap;html=1;" vertex="1" parent="1">
          <mxGeometry x="770" y="450" width="80" height="50" as="geometry" />
        </mxCell>
        <mxCell id="jlVLY12v8j3fMJKy2r_y-37" value="Worker 3" style="rounded=0;whiteSpace=wrap;html=1;" vertex="1" parent="1">
          <mxGeometry x="850" y="450" width="80" height="50" as="geometry" />
        </mxCell>
        <mxCell id="jlVLY12v8j3fMJKy2r_y-51" style="edgeStyle=orthogonalEdgeStyle;rounded=0;orthogonalLoop=1;jettySize=auto;html=1;exitX=0.145;exitY=0;exitDx=0;exitDy=4.35;exitPerimeter=0;" edge="1" parent="1" source="jlVLY12v8j3fMJKy2r_y-44" target="jlVLY12v8j3fMJKy2r_y-45">
          <mxGeometry relative="1" as="geometry" />
        </mxCell>
        <mxCell id="jlVLY12v8j3fMJKy2r_y-44" value="Zookeeper" style="shape=cylinder3;whiteSpace=wrap;html=1;boundedLbl=1;backgroundOutline=1;size=15;" vertex="1" parent="1">
          <mxGeometry x="570" y="560" width="60" height="80" as="geometry" />
        </mxCell>
        <mxCell id="jlVLY12v8j3fMJKy2r_y-52" style="edgeStyle=orthogonalEdgeStyle;rounded=0;orthogonalLoop=1;jettySize=auto;html=1;" edge="1" parent="1" source="jlVLY12v8j3fMJKy2r_y-45">
          <mxGeometry relative="1" as="geometry">
            <mxPoint x="480" y="220" as="targetPoint" />
          </mxGeometry>
        </mxCell>
        <mxCell id="jlVLY12v8j3fMJKy2r_y-45" value="Job claim service" style="rounded=0;whiteSpace=wrap;html=1;" vertex="1" parent="1">
          <mxGeometry x="540" y="350" width="110" height="50" as="geometry" />
        </mxCell>
        <mxCell id="jlVLY12v8j3fMJKy2r_y-46" value="Distributed locks acquired&lt;br&gt;&amp;nbsp;on worker for&amp;nbsp;each job&lt;br&gt;on each worker" style="text;html=1;align=center;verticalAlign=middle;resizable=0;points=[];autosize=1;strokeColor=none;fillColor=none;" vertex="1" parent="1">
          <mxGeometry x="720" y="533" width="160" height="60" as="geometry" />
        </mxCell>
        <mxCell id="jlVLY12v8j3fMJKy2r_y-47" value="hearbeat&lt;br&gt;and&lt;br&gt;failed job &lt;br&gt;status" style="text;html=1;align=center;verticalAlign=middle;resizable=0;points=[];autosize=1;strokeColor=none;fillColor=none;" vertex="1" parent="1">
          <mxGeometry x="600" y="480" width="70" height="70" as="geometry" />
        </mxCell>
      </root>
    </mxGraphModel>
  </diagram>
</mxfile>
